<svg width="19" height="23" viewBox="0 0 19 23" fill="none" xmlns="http://www.w3.org/2000/svg">
<path d="M0.75 19.4484C0.75 16.5074 2.81104 14.0023 5.61205 13.5389L5.86435 13.4971C8.10726 13.126 10.3927 13.126 12.6356 13.4971L12.8879 13.5389C15.689 14.0023 17.75 16.5074 17.75 19.4484C17.75 20.7195 16.7561 21.75 15.5301 21.75H2.96987C1.74387 21.75 0.75 20.7195 0.75 19.4484Z" stroke="#AED489" stroke-width="1.5"/>
<path d="M14.1953 5.54883C14.1953 8.19915 11.9812 10.3477 9.25 10.3477C6.51878 10.3477 4.30469 8.19915 4.30469 5.54883C4.30469 2.89851 6.51878 0.75 9.25 0.75C11.9812 0.75 14.1953 2.89851 14.1953 5.54883Z" stroke="#AED489" stroke-width="1.5"/>
</svg>
