<svg width="17" height="17" viewBox="0 0 17 17" fill="none" xmlns="http://www.w3.org/2000/svg">
<path d="M15.2681 7.12722H9.15452V1.01365C9.15452 0.456142 8.69837 0 8.14087 0C7.58336 0 7.12722 0.456142 7.12722 1.01365V7.12722H1.01365C0.456142 7.12722 0 7.58336 0 8.14087C0 8.41962 0.114034 8.67304 0.29776 8.85676C0.481483 9.04048 0.734896 9.15452 1.01365 9.15452H7.12722V15.2681C7.12722 15.5468 7.24125 15.8003 7.42498 15.984C7.6087 16.1677 7.86211 16.2817 8.14087 16.2817C8.69837 16.2817 9.15452 15.8256 9.15452 15.2681V9.15452H15.2681C15.8256 9.15452 16.2817 8.69837 16.2817 8.14087C16.2817 7.58336 15.8256 7.12722 15.2681 7.12722Z" fill="white"/>
</svg>
