<svg width="20" height="20" viewBox="0 0 20 20" fill="none" xmlns="http://www.w3.org/2000/svg">
<path d="M1.10288 6.70043C1.75437 3.923 3.92301 1.75437 6.70043 1.10288C8.70625 0.632374 10.7937 0.632375 12.7996 1.10288C15.577 1.75437 17.7456 3.92301 18.3971 6.70043C18.8676 8.70625 18.8676 10.7937 18.3971 12.7996C17.7456 15.577 15.577 17.7456 12.7996 18.3971C10.7937 18.8676 8.70625 18.8676 6.70043 18.3971C3.92301 17.7456 1.75437 15.577 1.10288 12.7996C0.632374 10.7937 0.632374 8.70625 1.10288 6.70043Z" stroke="#B2BCA8" stroke-width="1.5"/>
<path d="M13.25 9.75L6.25 9.75M6.25 9.75L8.75 12.25M6.25 9.75L8.75 7.25001" stroke="#B2BCA8" stroke-width="1.5"/>
</svg>
