<svg width="19" height="21" viewBox="0 0 19 21" fill="none" xmlns="http://www.w3.org/2000/svg">
<path d="M1.14489 9.17565C1.62345 7.41566 3.102 6.06555 4.96335 5.6889C7.62928 5.14944 10.3839 5.14944 13.0498 5.6889C14.9111 6.06555 16.3897 7.41566 16.8682 9.17565L16.9472 9.46612C17.4679 11.3809 17.3425 13.404 16.5891 15.2467L16.4932 15.4812C15.723 17.3648 13.9695 18.7196 11.8811 19.0446L11.1083 19.1648C9.7163 19.3815 8.29679 19.3815 6.90477 19.1648L6.13203 19.0446C4.04365 18.7196 2.29007 17.3647 1.51991 15.4812L1.42404 15.2467C0.670589 13.404 0.545251 11.381 1.06591 9.46613L1.14489 9.17565Z" stroke="#4C8613" stroke-width="1.5" stroke-linejoin="round"/>
<path d="M12.286 5.93695C12.6409 5.12926 12.7301 4.23743 12.5417 3.38009C12.2543 2.07193 11.1647 1.06156 9.78788 0.82658L9.66666 0.80589C9.23003 0.73137 8.78304 0.73137 8.34642 0.80589L8.22519 0.82658C6.84841 1.06156 5.75877 2.07193 5.47134 3.38009C5.28297 4.23743 5.37218 5.12926 5.72711 5.93695" stroke="#4C8613" stroke-width="1.5" stroke-linejoin="round"/>
</svg>
