<svg width="20" height="22" viewBox="0 0 20 22" fill="none" xmlns="http://www.w3.org/2000/svg">
<path d="M2.04356 7.05249C2.65059 4.56558 4.57238 2.64668 7.00522 2.09828L7.49944 1.98687C9.34819 1.57013 11.2626 1.57013 13.1114 1.98687L13.6056 2.09828C16.0384 2.64668 17.9602 4.56558 18.5672 7.05249C19.0365 8.97477 19.0365 10.9867 18.5672 12.909C17.9602 15.3959 16.0384 17.3148 13.6056 17.8632L13.1114 17.9746C11.2626 18.3914 9.34819 18.3914 7.49945 17.9746L7.00522 17.8632C4.57238 17.3148 2.65059 15.3959 2.04356 12.909C1.57435 10.9867 1.57435 8.97477 2.04356 7.05249Z" fill="white" fill-opacity="0.14902" stroke="white" stroke-width="1.5"/>
<path d="M7.15048 17.8864C7.29857 18.2048 7.35501 18.5602 7.31312 18.9106C7.27123 19.261 7.13276 19.5917 6.9141 19.8637C6.69543 20.1356 6.40571 20.3373 6.07919 20.4451C5.75267 20.5528 5.40302 20.5621 5.07157 20.4717C4.74012 20.3813 4.44074 20.1951 4.20884 19.935C3.97694 19.675 3.8222 19.352 3.76294 19.0043C3.70368 18.6566 3.74237 18.2986 3.87443 17.9728C4.00649 17.647 4.2264 17.367 4.50815 17.1658M16.0706 17.3749C16.3324 17.6045 16.5246 17.9067 16.6245 18.2455C16.7243 18.5844 16.7275 18.9456 16.6337 19.2863C16.5399 19.6269 16.3531 19.9327 16.0954 20.1672C15.8377 20.4017 15.52 20.555 15.1801 20.609C14.8403 20.663 14.4925 20.6153 14.1781 20.4717C13.8638 20.328 13.5962 20.0945 13.407 19.7987C13.2179 19.503 13.1152 19.1575 13.1113 18.8035C13.1073 18.4494 13.2022 18.1016 13.3846 17.8015M2.52557 13.6779H18.085H2.52557ZM3.12401 4.4353L2.97551 3.62385C2.70494 2.14545 1.57148 0.995296 0.131836 0.738281" fill="white" fill-opacity="0.14902"/>
<path d="M7.15048 17.8864C7.29857 18.2048 7.35501 18.5602 7.31312 18.9106C7.27123 19.261 7.13276 19.5917 6.9141 19.8637C6.69543 20.1356 6.40571 20.3373 6.07919 20.4451C5.75267 20.5528 5.40302 20.5621 5.07157 20.4717C4.74012 20.3813 4.44074 20.1951 4.20884 19.935C3.97694 19.675 3.8222 19.352 3.76294 19.0043C3.70368 18.6566 3.74237 18.2986 3.87443 17.9728C4.00649 17.647 4.2264 17.367 4.50815 17.1658M16.0706 17.3749C16.3324 17.6045 16.5246 17.9067 16.6245 18.2455C16.7243 18.5844 16.7275 18.9456 16.6337 19.2863C16.5399 19.6269 16.3531 19.9327 16.0954 20.1672C15.8377 20.4017 15.52 20.555 15.1801 20.609C14.8403 20.663 14.4925 20.6153 14.1781 20.4717C13.8638 20.328 13.5962 20.0945 13.407 19.7987C13.2179 19.503 13.1152 19.1575 13.1113 18.8035C13.1073 18.4494 13.2022 18.1016 13.3846 17.8015M2.52557 13.6779H18.085M3.12401 4.4353L2.97551 3.62385C2.70494 2.14545 1.57148 0.995296 0.131836 0.738281" stroke="white" stroke-width="1.5"/>
<path d="M12.2883 5.15869L12.3334 5.16621C14.2206 5.48073 15.6037 7.11348 15.6037 9.02665" fill="white" fill-opacity="0.14902"/>
<path d="M12.2883 5.15869L12.3334 5.16621C14.2206 5.48073 15.6037 7.11348 15.6037 9.02665" stroke="white" stroke-width="1.5" stroke-linecap="round"/>
</svg>
