<svg width="22" height="21" viewBox="0 0 22 21" fill="none" xmlns="http://www.w3.org/2000/svg">
<path d="M16.0769 0C16.0611 0 16.0399 0 16.024 0C13.9245 0 12.0683 1.1025 11 2.73C9.93173 1.1025 8.07548 0 5.97596 0C5.9601 0 5.93894 0 5.92308 0C2.64952 0.0314996 0 2.67225 0 5.9325C0 7.875 0.856731 10.6312 2.52789 12.8993C5.71154 17.22 11 21 11 21C11 21 16.2885 17.22 19.4721 12.8993C21.1433 10.6312 22 7.875 22 5.9325C22 2.67225 19.3505 0.0314996 16.0769 0ZM18.2769 12.033C16.024 15.0938 12.5918 17.9182 11 19.152C9.40817 17.9182 5.97596 15.0885 3.72308 12.0277C2.17356 9.92775 1.48077 7.455 1.48077 5.9325C1.48077 4.746 1.94615 3.633 2.78173 2.793C3.6226 1.953 4.73846 1.48575 5.93365 1.47525C5.93365 1.47525 5.93365 1.47525 5.93894 1.47525C5.94952 1.47525 5.9601 1.47525 5.97067 1.47525H5.98125C6.7375 1.47525 7.48846 1.6695 8.15481 2.04225C8.8 2.4045 9.36058 2.919 9.7625 3.5385C10.0375 3.95325 10.5029 4.20525 11.0053 4.20525C11.5077 4.20525 11.9731 3.95325 12.2481 3.5385C12.6553 2.919 13.2106 2.4045 13.8558 2.04225C14.5221 1.6695 15.2731 1.47525 16.0293 1.47525H16.0399C16.0505 1.47525 16.0611 1.47525 16.0716 1.47525C16.0716 1.47525 16.0716 1.47525 16.0769 1.47525C17.2668 1.48575 18.388 1.953 19.2288 2.793C20.0697 3.633 20.5298 4.75125 20.5298 5.9325C20.5192 7.455 19.8264 9.92775 18.2769 12.033Z" fill="#AED489"/>
</svg>
