<svg width="23" height="23" viewBox="0 0 23 23" fill="none" xmlns="http://www.w3.org/2000/svg">
<path d="M19.755 8.58887V14.3269C19.755 17.7041 17.4468 20.6371 14.1821 21.4083C12.2535 21.8639 10.2464 21.8639 8.31785 21.4083C5.05314 20.6371 2.74499 17.7041 2.74499 14.3269V8.58887M21.75 10.3513L14.5498 3.09993C12.9943 1.53331 12.2165 0.75 11.25 0.75C10.2835 0.75 9.50572 1.53331 7.95017 3.09993L0.75 10.3513M13.4375 21.5135L13.5737 21.2272C13.9589 20.4178 14.0774 19.5056 13.9118 18.6237L13.8893 18.5035C13.702 17.5059 12.9673 16.7026 11.9954 16.433C11.5076 16.2976 10.9924 16.2976 10.5046 16.433C9.5327 16.7026 8.79797 17.5059 8.61072 18.5035L8.58816 18.6237C8.42261 19.5056 8.54107 20.4178 8.92626 21.2272L9.0625 21.5135" stroke="#AED489" stroke-width="1.5" stroke-linecap="round"/>
</svg>
