<svg width="21" height="21" viewBox="0 0 21 21" fill="none" xmlns="http://www.w3.org/2000/svg">
<path d="M1.13228 7.069C1.83806 4.11954 4.18739 1.81658 7.19624 1.12473C9.3692 0.625089 11.6306 0.625089 13.8036 1.12473C16.8124 1.81658 19.1618 4.11954 19.8675 7.069C20.3772 9.19906 20.3772 11.4158 19.8675 13.5459C19.1618 16.4954 16.8124 18.7983 13.8036 19.4902C11.6306 19.9898 9.3692 19.9898 7.19625 19.4902C4.1874 18.7983 1.83806 16.4954 1.13228 13.5459C0.622573 11.4159 0.622573 9.19906 1.13228 7.069Z" fill="#4C8613" fill-opacity="0.14902" stroke="#4C8613" stroke-width="1.5"/>
<path d="M12.7539 20.2498C12.7539 17.1252 12.7539 15.5629 13.7441 14.5923C14.7344 13.6216 16.3281 13.6216 19.5156 13.6216" fill="#4C8613" fill-opacity="0.14902"/>
<path d="M12.7539 20.2498C12.7539 17.1252 12.7539 15.5629 13.7441 14.5923C14.7344 13.6216 16.3281 13.6216 19.5156 13.6216" stroke="#4C8613" stroke-width="1.5"/>
<path d="M7.25 7.25H10.5H7.25ZM7.25 10.5H12.6666H7.25Z" fill="#4C8613" fill-opacity="0.14902"/>
<path d="M7.25 7.25H10.5M7.25 10.5H12.6666" stroke="#4C8613" stroke-width="1.5" stroke-linecap="round"/>
</svg>
