<svg width="22" height="24" viewBox="0 0 22 24" fill="none" xmlns="http://www.w3.org/2000/svg">
<path d="M8.28671 1.1564C5.61365 2.03553 3.52869 4.23484 2.79373 6.98694L2.7253 7.24318C2.24751 9.03228 2.15972 10.9056 2.46804 12.7326L2.49793 12.9097C2.51406 13.0053 2.53244 13.1001 2.55301 13.1939C1.49221 13.6598 0.75 14.7315 0.75 15.9791C0.75 17.4211 1.75034 18.6638 3.14277 18.9516L3.61234 19.0486C8.32242 20.0222 13.1776 20.0222 17.8877 19.0486L18.3572 18.9516C19.7497 18.6638 20.75 17.4211 20.75 15.9791C20.75 14.7309 20.007 13.6588 18.9454 13.1932C18.9689 13.0885 18.9898 12.9826 19.0078 12.8757L19.0395 12.6879C19.343 10.8895 19.2639 9.04604 18.8075 7.28119L18.716 6.92733C18.0142 4.21339 16.0061 2.04453 13.3805 1.16473C11.733 0.6127 9.93715 0.6136 8.28671 1.1564Z" stroke="#AED489" stroke-width="1.5" stroke-linecap="round"/>
<path d="M8.11795 19.6841C8.05545 20.1216 7.78096 19.7943 7.90518 20.3648L7.97869 20.7024C8.18507 21.6501 8.91346 22.3954 9.85293 22.6201L10.0517 22.6677C10.5112 22.7776 10.99 22.7776 11.4495 22.6677L11.6482 22.6201C12.5877 22.3954 13.3161 21.6501 13.5225 20.7024L13.596 20.3648C13.7202 19.7943 13.4773 20.2466 13.3992 19.6841" stroke="#AED489" stroke-width="1.5" stroke-linecap="round"/>
</svg>
