<svg width="23" height="23" viewBox="0 0 23 23" fill="none" xmlns="http://www.w3.org/2000/svg">
<path d="M1.16169 7.69217C1.92177 4.45184 4.45184 1.92177 7.69217 1.16169C10.0323 0.61277 12.4677 0.61277 14.8078 1.16169C18.0482 1.92177 20.5782 4.45184 21.3383 7.69217C21.8872 10.0323 21.8872 12.4677 21.3383 14.8078C20.5782 18.0482 18.0482 20.5782 14.8078 21.3383C12.4677 21.8872 10.0323 21.8872 7.69218 21.3383C4.45185 20.5782 1.92177 18.0482 1.16169 14.8078C0.61277 12.4677 0.61277 10.0323 1.16169 7.69217Z" stroke="#AED489" stroke-width="1.5" stroke-linecap="round"/>
<path d="M14.8306 21.1053C14.8306 18.221 14.8306 16.7789 15.7446 15.8828C16.6587 14.9868 18.1299 14.9868 21.0722 14.9868" stroke="#AED489" stroke-width="1.5" stroke-linecap="round"/>
<path d="M8.13452 8.08765H11.1345M8.13452 11.0876H13.1345" stroke="#AED489" stroke-width="1.5" stroke-linecap="round"/>
</svg>
