<svg width="22" height="22" viewBox="0 0 22 22" fill="none" xmlns="http://www.w3.org/2000/svg">
<path d="M17.2833 18.0834C17.2833 19.5562 16.0894 20.7501 14.6166 20.7501C13.1439 20.7501 11.95 19.5562 11.95 18.0834C11.95 16.6107 13.1439 15.4167 14.6166 15.4167C16.0894 15.4167 17.2833 16.6107 17.2833 18.0834Z" stroke="white" stroke-width="1.5" stroke-linecap="round"/>
<path d="M7.95003 10.7499C7.95003 12.2227 6.75613 13.4166 5.28337 13.4166C3.81061 13.4166 2.6167 12.2227 2.6167 10.7499C2.6167 9.27716 3.81061 8.08325 5.28337 8.08325C6.75613 8.08325 7.95003 9.27716 7.95003 10.7499Z" stroke="white" stroke-width="1.5" stroke-linecap="round"/>
<path d="M17.2833 3.41667C17.2833 4.88943 16.0894 6.08333 14.6166 6.08333C13.1439 6.08333 11.95 4.88943 11.95 3.41667C11.95 1.94391 13.1439 0.75 14.6166 0.75C16.0894 0.75 17.2833 1.94391 17.2833 3.41667Z" stroke="white" stroke-width="1.5" stroke-linecap="round"/>
<path d="M17.95 18.0132H20.75M2.61666 10.75L0.75 10.7989M8.71553 10.799H20.75M11.64 3.58472H0.75M20.75 3.58472H17.95M0.750001 18.0132H11.64" stroke="white" stroke-width="1.5" stroke-linecap="round"/>
</svg>
